<svg id="metastore" data-name="metastore" xmlns="http://www.w3.org/2000/svg" viewBox="0 0 1000 1000"><defs><style>.cls-1{fill:#0382fd;}.cls-2{fill:#03298f;}.cls-3{fill:#034cd5;}</style></defs><polygon class="cls-1" points="500 1000 62.5 750 500 500 937.5 750 500 1000"/><polygon class="cls-1" points="500 500 62.5 250 500 0 937.5 250 500 500"/><polygon class="cls-2" points="62.5 250 62.5 750 184.24 819.57 184.24 481.9 500 669.52 500 500 62.5 250"/><polygon class="cls-3" points="937.5 250 937.5 750 815.76 819.57 815.76 481.9 500 669.52 500 500 937.5 250"/><polygon class="cls-3" points="500 669.52 184.24 481.9 184.24 819.57 500 669.52"/><polygon class="cls-2" points="815.76 481.9 500 669.52 815.76 819.57 815.76 481.9"/></svg>
