<svg xmlns="http://www.w3.org/2000/svg" xmlns:xlink="http://www.w3.org/1999/xlink" viewBox="0 0 1000 1000"><defs><style>.cls-1{fill:url(#radial-gradient);}.cls-2{fill:url(#linear-gradient);}.cls-3{fill:url(#linear-gradient-2);}.cls-4{fill:url(#linear-gradient-3);}.cls-5{fill:url(#linear-gradient-4);}</style><radialGradient id="radial-gradient" cx="500" cy="312.16" fy="942.2084693205778" r="630.07" gradientTransform="translate(26.13 26.11) scale(0.95 0.95)" gradientUnits="userSpaceOnUse"><stop offset="0.33" stop-color="#6aaefb"/><stop offset="1" stop-color="#3b86ff"/></radialGradient><linearGradient id="linear-gradient" x1="342.55" y1="413.36" x2="217.33" y2="770.02" gradientUnits="userSpaceOnUse"><stop offset="0.18" stop-color="#233fed"/><stop offset="1" stop-color="#022785"/></linearGradient><linearGradient id="linear-gradient-2" x1="677.7" y1="429.23" x2="734.77" y2="802.87" gradientUnits="userSpaceOnUse"><stop offset="0" stop-color="#367fff"/><stop offset="1" stop-color="#0346c4"/></linearGradient><linearGradient id="linear-gradient-3" x1="227" y1="668.1" x2="500" y2="668.1" gradientUnits="userSpaceOnUse"><stop offset="0" stop-color="#2069ec"/><stop offset="1" stop-color="#0549c7"/></linearGradient><linearGradient id="linear-gradient-4" x1="500" y1="668.14" x2="773" y2="668.14" gradientUnits="userSpaceOnUse"><stop offset="0" stop-color="#022785"/><stop offset="1" stop-color="#223ee9"/></linearGradient></defs><g id="metastore"><g id="metastore-2" data-name="metastore"><polygon class="cls-1" points="500 537.96 122 321.96 500 105.96 878 321.96 500 537.96"/><polygon class="cls-2" points="122 321.96 122 754.01 227 814.01 227 522.26 500 684.48 500 537.96 122 321.96"/><polygon class="cls-3" points="878 321.96 878 754.01 773 814.01 773 522.26 500 684.48 500 537.96 878 321.96"/><polygon class="cls-4" points="500 684.48 227 522.18 227 814.01 500 684.48"/><polygon class="cls-5" points="773 522.26 500 684.48 773 814.01 773 522.26"/></g></g></svg>